<?xml version="1.0" encoding="UTF-8" standalone="no"?>
<svg
   xmlns:osb="http://www.openswatchbook.org/uri/2009/osb"
   xmlns:dc="http://purl.org/dc/elements/1.1/"
   xmlns:cc="http://creativecommons.org/ns#"
   xmlns:rdf="http://www.w3.org/1999/02/22-rdf-syntax-ns#"
   xmlns:svg="http://www.w3.org/2000/svg"
   xmlns="http://www.w3.org/2000/svg"
   xmlns:xlink="http://www.w3.org/1999/xlink"
   xmlns:sodipodi="http://sodipodi.sourceforge.net/DTD/sodipodi-0.dtd"
   xmlns:inkscape="http://www.inkscape.org/namespaces/inkscape"
   version="1.1"
   id="Elements"
   width="510"
   height="390"
   viewBox="0 0 510 390"
   overflow="visible"
   enable-background="new 0 0 504 92.139"
   xml:space="preserve"
   sodipodi:docname="house_full - Copy.svg"
   inkscape:version="1.0 (4035a4fb49, 2020-05-01)"><metadata
   id="metadata15"><rdf:RDF><cc:Work
       rdf:about=""><dc:format>image/svg+xml</dc:format><dc:type
         rdf:resource="http://purl.org/dc/dcmitype/StillImage" /><dc:title /></cc:Work></rdf:RDF></metadata><defs
   id="defs13"><linearGradient
     id="linearGradient2811"
     osb:paint="solid"><stop
       style="stop-color:#000000;stop-opacity:1;"
       offset="0"
       id="stop2809" /></linearGradient><filter
     inkscape:collect="always"
     style="color-interpolation-filters:sRGB"
     id="filter59"
     x="-0.016479105"
     width="1.0329581"
     y="-0.026769243"
     height="1.0535384"><feGaussianBlur
       inkscape:collect="always"
       stdDeviation="0.23174302"
       id="feGaussianBlur61" /></filter><linearGradient
     inkscape:collect="always"
     id="linearGradient930"><stop
       style="stop-color:#000000;stop-opacity:1;"
       offset="0"
       id="stop926" /><stop
       style="stop-color:#000000;stop-opacity:0;"
       offset="1"
       id="stop928" /></linearGradient><linearGradient
     inkscape:collect="always"
     xlink:href="#linearGradient930"
     id="linearGradient857"
     x1="92.981079"
     y1="60.660362"
     x2="109.8232"
     y2="45.748119"
     gradientUnits="userSpaceOnUse"
     gradientTransform="translate(-49.204319,-36.514389)" /><linearGradient
     inkscape:collect="always"
     xlink:href="#linearGradient930"
     id="linearGradient924"
     x1="85.702309"
     y1="50.445423"
     x2="89.721062"
     y2="45.988583"
     gradientUnits="userSpaceOnUse"
     gradientTransform="translate(-49.464546,-36.607933)" /><linearGradient
     inkscape:collect="always"
     xlink:href="#linearGradient930"
     id="linearGradient932"
     x1="77.780846"
     y1="52.064682"
     x2="83.687805"
     y2="45.81295"
     gradientUnits="userSpaceOnUse"
     gradientTransform="translate(-50.262653,-36.514389)" /></defs><sodipodi:namedview
   inkscape:document-rotation="0"
   pagecolor="#ffffff"
   bordercolor="#666666"
   borderopacity="1"
   objecttolerance="10"
   gridtolerance="10"
   guidetolerance="10"
   inkscape:pageopacity="0"
   inkscape:pageshadow="2"
   inkscape:window-width="1920"
   inkscape:window-height="976"
   id="namedview11"
   showgrid="false"
   inkscape:zoom="1.4142136"
   inkscape:cx="87.333545"
   inkscape:cy="169.754"
   inkscape:window-x="2040"
   inkscape:window-y="-8"
   inkscape:window-maximized="1"
   inkscape:current-layer="g1084"
   units="px"
   width="5000.25in" />











<g
   inkscape:groupmode="layer"
   id="layer1"
   inkscape:label="Background"
   style="display:inline"><path
     fill="#92a778"
     d="m 29.651084,76.494465 c -1.89,100.041995 -1.584,200.066995 0.938,300.095995 150.180996,1.764 300.364996,1.764 450.546996,0 2.518,-100.028 2.821,-200.053 0.938,-300.095995 -150.807,-1.348 -301.616,-1.348 -452.422996,0 z M 225.57908,132.75346 c 10.846,-0.008 16.27,-0.01 27.116,-0.01 -0.002,12.555 -0.002,18.832 -0.003,31.386 -10.859,0.001 -16.29,0.002 -27.149,0.006 0.011,-12.552 0.018,-18.83 0.036,-31.382 z m -108.975,189.243 c -10.822,-0.057 -16.232,-0.086 -27.053997,-0.15 -0.164,-12.502 -0.233,-18.75 -0.353,-31.25 10.843997,0.047 16.266997,0.068 27.110997,0.109 0.1,12.515 0.159,18.773 0.296,31.291 z m -0.344,-37.593 c -10.848,-0.036 -16.271997,-0.059 -27.119997,-0.102 -0.111,-12.501 -0.155,-18.748 -0.221,-31.249 10.862,0.026 16.292997,0.038 27.155997,0.061 0.054,12.516 0.092,18.774 0.185,31.29 z m -0.287,-82.542 c -10.871,0.003 -16.304997,0.003 -27.175997,0.005 0.007,-12.499 0.021,-18.749 0.072,-31.249 10.866,-0.021 16.298997,-0.03 27.164997,-0.047 -0.044,12.517 -0.056,18.774 -0.061,31.291 z m 0.083,-37.605 c -10.864,0.021 -16.295997,0.031 -27.160997,0.055 0.06,-12.5 0.102,-18.75 0.206,-31.25 10.851,-0.041 16.276997,-0.061 27.126997,-0.096 -0.087,12.517 -0.122,18.776 -0.172,31.291 z m 33.893,157.886 c -10.822,-0.041 -16.232,-0.064 -27.054,-0.117 -0.131,-12.52 -0.187,-18.779 -0.282,-31.299 10.844,0.037 16.267,0.055 27.111,0.086 0.075,12.531 0.121,18.799 0.225,31.33 z m -0.262,-37.639 c -10.848,-0.027 -16.271,-0.043 -27.12,-0.078 -0.088,-12.52 -0.125,-18.779 -0.177,-31.299 10.863,0.021 16.294,0.029 27.157,0.047 0.042,12.531 0.07,18.797 0.14,31.33 z m -0.217,-82.648 c -10.871,0.001 -16.307,0.003 -27.178,0.005 0.005,-12.52 0.018,-18.779 0.059,-31.299 10.866,-0.016 16.298,-0.025 27.164,-0.037 -0.032,12.531 -0.04,18.799 -0.045,31.331 z m 0.063,-37.653 c -10.864,0.016 -16.297,0.024 -27.161,0.043 0.047,-12.52 0.081,-18.779 0.164,-31.299 10.851,-0.033 16.277,-0.048 27.127,-0.074 -0.065,12.532 -0.092,18.799 -0.13,31.33 z m 76.005,6.263 c 10.862,-0.003 16.293,-0.004 27.154,-0.004 -0.002,12.554 0,18.831 0,31.385 -10.865,0 -16.302,0 -27.167,0.001 0.001,-12.551 0.004,-18.829 0.013,-31.382 z m 60.661,31.382 c -10.87,-0.001 -16.307,-0.001 -27.177,-0.001 0,-12.554 0,-18.831 -0.001,-31.385 10.866,0 16.298,0.001 27.164,0.004 0.01,12.553 0.013,18.831 0.014,31.382 z m -0.018,-37.713 c -10.863,-0.004 -16.295,-0.006 -27.159,-0.007 -0.001,-12.554 -0.001,-18.83 -0.004,-31.385 10.851,0 16.275,0.002 27.126,0.01 0.019,12.552 0.026,18.831 0.037,31.382 z m 102.636,157.891 c -10.821,0.051 -16.235,0.076 -27.057,0.117 0.104,-12.531 0.151,-18.799 0.228,-31.33 10.845,-0.031 16.269,-0.047 27.113,-0.086 -0.095,12.52 -0.153,18.778 -0.284,31.299 z m 0.331,-37.601 c -10.848,0.035 -16.275,0.051 -27.124,0.078 0.071,-12.532 0.1,-18.799 0.141,-31.33 10.863,-0.018 16.296,-0.026 27.158,-0.047 -0.052,12.52 -0.086,18.78 -0.175,31.299 z m 0.272,-82.564 c -10.87,-0.002 -16.308,-0.004 -27.178,-0.005 -0.003,-12.532 -0.013,-18.799 -0.045,-31.331 10.866,0.014 16.299,0.021 27.165,0.037 0.041,12.52 0.053,18.779 0.058,31.299 z m -0.079,-37.615 c -10.864,-0.019 -16.298,-0.027 -27.162,-0.043 -0.038,-12.531 -0.064,-18.798 -0.131,-31.33 10.851,0.026 16.278,0.041 27.129,0.074 0.083,12.519 0.116,18.779 0.164,31.299 z m 32.82,157.6 c -10.821,0.064 -16.23,0.094 -27.052,0.15 0.137,-12.518 0.194,-18.775 0.295,-31.291 10.844,-0.041 16.267,-0.061 27.111,-0.109 -0.12,12.5 -0.19,18.75 -0.354,31.25 z m 0.412,-37.542 c -10.849,0.044 -16.271,0.063 -27.119,0.1 0.093,-12.516 0.128,-18.773 0.184,-31.289 10.862,-0.022 16.294,-0.035 27.156,-0.062 -0.066,12.501 -0.111,18.751 -0.221,31.251 z m 0.342,-82.437 c -10.87,-0.002 -16.306,-0.002 -27.176,-0.004 -0.005,-12.517 -0.018,-18.775 -0.061,-31.291 10.867,0.017 16.299,0.025 27.166,0.046 0.051,12.5 0.065,18.75 0.071,31.249 z m -0.099,-37.555 c -10.864,-0.023 -16.297,-0.035 -27.161,-0.055 -0.05,-12.517 -0.085,-18.774 -0.172,-31.291 10.851,0.035 16.277,0.055 27.128,0.096 0.104,12.5 0.146,18.75 0.205,31.25 z m 109.61697,62.39 h -0.01 v -0.007 h 0.01 z"
     id="path4" /></g><g
   inkscape:groupmode="layer"
   id="layer2"
   inkscape:label="house_front"
   style="display:inline"><path
     fill="#7e1113"
     d="m 276.87182,273.9507 c -0.026,30.711 -0.069,61.42 -0.13,92.13 -13.23,0.014 -26.46,0.01 -39.69,0 -0.059,-30.71 -0.102,-61.419 -0.13,-92.13 13.317,0.006 26.633,0.006 39.95,0 z m 464.05,46.066 h -0.008 v 0.008 h 0.008 z"
     id="path2" /><path
     fill="#002c06"
     d="m 479.72785,4.0755704 c 8.963,24.5629996 17.875,49.1460046 26.727,73.7490046 -167.999,-1.241 -336,-1.235 -503.9999974,0 8.8490014,-24.604 17.7660014,-49.184005 26.7270014,-73.7490046 150.179996,-1.764 300.363996,-1.764 450.545996,0 z"
     id="path8"
     sodipodi:nodetypes="ccccc" /><path
     fill="#c9d9b2"
     d="m 312.07179,362.49779 c -1.748,0.005 -2.62,0.006 -4.368,0.01 0.145,-29.794 0.251,-59.587 0.319,-89.38 1.758,-10e-4 2.636,-0.002 4.394,-0.004 0.004,-1.666 0.006,-2.502 0.01,-4.169 2.172,-0.002 3.257,-0.003 5.429,-0.005 0.02,-8.757 0.028,-13.137 0.039,-21.894 6.066,-0.004 9.099,-0.006 15.164,-0.01 -25.698,-10.24 -51.391,-20.492 -77.082,-30.75 -25.692,10.256 -51.385,20.508 -77.081,30.751 6.065,0.004 9.097,0.006 15.162,0.01 0.011,8.757 0.019,13.137 0.038,21.894 2.167,0.002 3.251,0.004 5.418,0.006 0.003,1.666 0.005,2.5 0.008,4.167 1.758,0.001 2.638,0.004 4.395,0.005 0.066,29.793 0.175,59.586 0.319,89.38 -1.747,-0.004 -2.622,-0.005 -4.368,-0.01 0.01,1.667 0.013,2.502 0.023,4.169 -2.323,-0.006 -3.483,-0.01 -5.807,-0.018 0.053,8.419 0.082,12.628 0.143,21.046 41.164,0.123 82.324,0.12 123.487,0.002 0.062,-8.419 0.088,-12.628 0.142,-21.046 -2.323,0.007 -3.482,0.01 -5.807,0.016 0.01,-1.668 0.014,-2.503 0.023,-4.17 z m -105.694,-118.529 c 16.534,-6.506 33.067,-13.011 49.599,-19.521 16.531,6.511 33.063,13.017 49.598,19.521 -33.066,0.011 -66.132,0.012 -99.197,0 z m 87.223,118.568 c -1.742,0.003 -2.614,0.005 -4.356,0.007 -0.005,1.669 -0.007,2.501 -0.013,4.17 -5.364,0.008 -8.046,0.013 -13.41,0.018 -13.23,0.014 -26.46,0.01 -39.69,0 -5.368,-0.005 -8.052,-0.008 -13.42,-0.018 -0.006,-1.668 -0.01,-2.501 -0.015,-4.17 -1.741,-0.002 -2.614,-0.004 -4.355,-0.007 -0.104,-29.8 -0.18,-59.599 -0.231,-89.397 1.753,10e-4 2.631,0.002 4.383,0.003 -0.002,-1.668 -0.004,-2.501 -0.006,-4.17 22.323,0.009 44.646,0.009 66.969,0 -0.003,1.669 -0.004,2.502 -0.007,4.17 1.753,-10e-4 2.631,-0.002 4.383,-0.003 -0.05,29.799 -0.129,59.597 -0.232,89.397 z m 389.295,-60.491 h -0.008 v -0.008 h 0.008 z"
     id="path6" /><g
     id="g50"
     transform="translate(-153.77807,-13.323485)"
     style="fill:none;fill-opacity:1;stroke:#181300;stroke-opacity:0.730924;filter:url(#filter59)"><path
       id="path32"
       d="m 593,364.625 c 0.89065,-1.19885 1.74383,-1.11188 3.125,-1.25 0.34189,-0.0342 0.65851,-0.21206 1,-0.25 0.3727,-0.0414 0.7551,0.0616 1.125,0 0.53602,-0.0893 1.1209,-0.25205 1.625,0 0.10541,0.0527 0.15194,0.18463 0.25,0.25 0.45962,0.30641 1.01242,0.63121 1.5,0.875 0.125,0.0417 0.25,0.0833 0.375,0.125 0,0.0417 -0.0295,0.0955 0,0.125 0.0589,0.0589 0.19107,-0.0589 0.25,0 0.0295,0.0295 -0.0186,0.0877 0,0.125 0.12147,0.24294 0.4492,0.3828 0.625,0.5 0.16217,0.10811 0.35311,0.51094 0.625,0.375 0.59118,-0.29559 1.11568,-0.74628 1.75,-1 0.39709,-0.15884 0.86526,-0.24675 1.25,-0.375 0.1118,-0.0373 0.14459,-0.1973 0.25,-0.25 0.86264,-0.43132 2.19257,-0.63345 3.125,-0.75 0.20672,-0.0258 0.42289,0.0505 0.625,0 0.225,-0.0562 0.43445,-0.18648 0.625,-0.25 0.24985,-0.0833 0.73487,0 1,0 0.21779,0 1.45263,-0.17237 1.625,0 0.18971,0.18971 0.42987,0.55487 0.625,0.75 0.0299,0.0299 0.54698,0.29698 0.75,0.5 0.14102,0.14102 1.12461,0.37539 0.875,0.625 -0.028,0.028 -0.43855,0.0636 -0.5,0.125 -0.093,0.093 -0.26198,0.44349 -0.375,0.5 -0.11181,0.0559 -0.26011,-0.0492 -0.375,0 -0.29577,0.22183 -0.43833,0.37533 -0.75,0.5 -0.23732,0.0949 -0.66926,0.14713 -0.875,0.25 -0.0833,0.0417 -0.0417,0.20833 -0.125,0.25 -0.0745,0.0373 -0.17547,-0.0373 -0.25,0 -0.24896,0.12448 -0.50537,0.46191 -0.75,0.625 -0.16036,0.10691 -0.61688,0.74594 -0.625,0.75 -0.0745,0.0373 -0.19108,-0.0589 -0.25,0 -0.0589,0.0589 0.0462,0.18066 0,0.25 -0.089,0.13343 -0.4968,0.3109 -0.625,0.375 -0.005,0.003 -0.84752,0.95878 -0.875,1 -0.1516,0.22739 -0.039,0.49205 -0.125,0.75 -0.0903,0.27086 -0.41151,0.48452 -0.5,0.75 -0.0263,0.0791 0.0373,0.17546 0,0.25 -0.0186,0.0373 -0.0955,-0.0295 -0.125,0 -0.25586,0.25586 -0.14946,1.07608 0,1.375 0.16046,0.32091 0.64913,0.9474 0.75,1.25 0.44837,1.34511 0.625,2.28941 0.625,3.875 0,0.32044 0.0972,0.83341 0,1.125 -0.0777,0.2332 -0.20998,0.20997 -0.375,0.375 -0.18282,0.18281 -0.34632,0.59632 -0.5,0.75 -0.46131,0.4613 -1.24715,0.62386 -1.875,0.875 -0.46774,0.18709 -0.0381,0.0815 -0.625,0.375 -0.62183,0.31091 -1.44684,0.52812 -2.125,0.625 -0.41984,0.06 -0.95535,0.0201 -1.375,0.125 -0.33835,-0.21245 -0.32322,0.19107 -0.5,0.25 -0.26941,0.0898 -1.48234,0.13383 -1.75,0 -0.56842,-0.28421 0.87077,-7e-4 -0.625,-0.25 -1.13873,-0.18979 -2.47649,0 -3.625,0 -0.22476,0 -0.66305,0.0707 -0.875,0 -0.30458,-0.10153 -0.5334,-0.4146 -0.875,-0.5 -0.12127,-0.0303 -0.2632,0.0559 -0.375,0 -0.52441,-0.26221 -1.19772,-0.57272 -1.625,-1 -0.0921,-0.0921 -0.31084,-0.40542 -0.5,-0.5 -0.15871,-0.0794 -0.45887,0.0554 -0.625,0 -0.1118,-0.0373 -0.14459,-0.1973 -0.25,-0.25 -0.67719,-0.3386 -1.57636,-0.90271 -1.875,-1.5 -0.0417,-0.0833 -0.20833,-0.0417 -0.25,-0.125 -0.0373,-0.0745 0.0373,-0.17547 0,-0.25 -0.0186,-0.0373 -0.0955,0.0295 -0.125,0 -0.17975,-0.17975 -0.39137,-0.53274 -0.5,-0.75 -0.12047,-0.24095 -0.004,-0.63396 -0.125,-0.875 -0.0934,-0.18684 -0.20923,-0.37231 -0.125,-0.625 1.9e-4,-5.6e-4 0.97272,-1.47272 1,-1.5 0.0295,-0.0295 0.0955,0.0295 0.125,0 0.30006,-0.30006 0.0981,-0.57117 0.25,-0.875 0.0496,-0.0992 0.24327,-0.23654 0.25,-0.25 0.0646,-0.12915 0.0646,-1.24585 0,-1.375 -0.0417,-0.0833 -0.20833,-0.0417 -0.25,-0.125 -0.14776,-0.29552 -0.29537,-0.69306 -0.5,-1 -0.0654,-0.0981 -0.21273,-0.1382 -0.25,-0.25 -0.0263,-0.0791 0.0373,-0.17547 0,-0.25 -0.0186,-0.0373 -0.0877,0.0186 -0.125,0 -0.18155,-0.0908 -0.14271,-0.3927 -0.25,-0.5 -0.0659,-0.0659 -0.19832,-0.0475 -0.25,-0.125 -0.0462,-0.0693 0.0462,-0.18066 0,-0.25 -0.0517,-0.0775 -0.18412,-0.0591 -0.25,-0.125 -0.0295,-0.0295 0.0186,-0.0877 0,-0.125 -0.15487,-0.30974 -0.62796,-0.62796 -0.875,-0.875 -0.0659,-0.0659 -0.18412,-0.0591 -0.25,-0.125 -0.25863,-0.25863 0.39522,0.0101 -0.125,-0.25 -0.18872,-0.0944 -0.50051,-0.37551 -0.75,-0.625 -0.0295,-0.0295 0.0295,-0.0955 0,-0.125 -0.0589,-0.0589 -0.19108,0.0589 -0.25,0 -0.13447,-0.13447 -0.21479,-0.27993 -0.5,-0.375 -0.1875,-0.0625 -0.125,0.125 -0.375,0 -0.10541,-0.0527 -0.15194,-0.18463 -0.25,-0.25 -0.20381,-0.13588 -0.54787,-0.14894 -0.75,-0.25 -0.52022,-0.26011 0.13363,0.009 -0.125,-0.25 -0.0589,-0.0589 -0.17547,0.0373 -0.25,0 -0.38403,-0.19201 0.20674,-0.0705 -0.25,-0.375 -0.0693,-0.0462 -0.18066,0.0462 -0.25,0 -0.066,-0.044 -0.78017,-0.90517 -0.875,-1 -0.0589,-0.0589 -0.19108,0.0589 -0.25,0 -0.30316,-0.30316 0.29139,-0.54139 0.375,-0.625 0.13176,-0.13176 0.11824,-0.36824 0.25,-0.5 0.0816,-0.0816 0.38661,-0.19331 0.5,-0.25 0.25,-0.125 0.375,-0.5 0.625,-0.625 0.35577,-0.17789 0.69516,-0.35672 1.125,-0.5 0.39955,-0.13319 1.71138,-0.45681 2.125,-0.25 0.28303,0.14151 0.56396,0.37558 0.875,0.5 0.21052,0.0842 0.68067,0.0278 0.875,0.125 0.69513,0.34756 1.50044,0.62529 2.25,1.125 0.27681,0.18454 0.43998,0.56498 0.625,0.75 0.12553,0.12553 0.88271,0.56635 1,0.625 z"
       style="fill:none;fill-opacity:1;stroke:#181300;stroke-width:1px;stroke-linecap:butt;stroke-linejoin:miter;stroke-opacity:0.730924" /><path
       id="path34"
       d="m 600.25,372.375 c -0.56192,-0.21016 -1.16416,-0.125 -1.75,-0.125 -0.20833,0 -0.41667,0 -0.625,0 -0.0833,0 -0.19108,-0.0589 -0.25,0 -0.1106,0.1106 -0.60488,0.80244 -0.75,0.875 -0.0373,0.0186 -0.0955,-0.0295 -0.125,0 -0.10016,0.10015 -0.43249,0.61497 -0.5,0.75 -0.0373,0.0745 0.0462,0.18066 0,0.25 -0.0517,0.0775 -0.18412,0.0591 -0.25,0.125 -0.0551,0.0551 -0.0551,0.9449 0,1 0.0659,0.0659 0.18412,0.0591 0.25,0.125 0.11264,0.11264 0.17547,0.47595 0.25,0.625 0.16721,0.33442 0.48334,0.60834 0.75,0.875 0.125,0.125 0.22791,0.27694 0.375,0.375 0.0693,0.0462 0.21273,-0.0745 0.25,0 0.0373,0.0745 -0.0589,0.19107 0,0.25 0.11785,0.11785 0.33333,0 0.5,0 0.40689,0 1.29403,0.16549 1.625,0 0.10541,-0.0527 0.14459,-0.1973 0.25,-0.25 0.15871,-0.0794 0.45887,0.0554 0.625,0 0.1118,-0.0373 0.14459,-0.1973 0.25,-0.25 0.1,-0.05 0.275,0.05 0.375,0 0.25577,-0.12789 0.49117,-0.24559 0.75,-0.375 0.29981,-0.14991 1.21661,0.0792 1.875,-0.25 0.12992,-0.065 0.25,-1.1213 0.25,-1.25 0,-0.55221 -0.61996,-1.24496 -1,-1.625 -0.0659,-0.0659 -0.20833,-0.0417 -0.25,-0.125 -0.0373,-0.0745 0.0373,-0.17547 0,-0.25 -0.0224,-0.0448 -1.15527,-0.76513 -1.375,-0.875 -0.34097,-0.17049 -1.17974,0.0449 -1.5,0.125 z"
       style="fill:none;fill-opacity:1;stroke:#181300;stroke-width:1px;stroke-linecap:butt;stroke-linejoin:miter;stroke-opacity:0.730924" /><path
       id="path36"
       d="m 598.625,374.125 c 0.36157,0.685 0.25,1.59702 0.25,2"
       style="fill:none;fill-opacity:1;stroke:#181300;stroke-width:1px;stroke-linecap:butt;stroke-linejoin:miter;stroke-opacity:0.730924" /><path
       id="path38"
       d="m 600.75,374 c 0.31964,0.58185 0.25,1.11753 0.25,1.75"
       style="fill:none;fill-opacity:1;stroke:#181300;stroke-width:1px;stroke-linecap:butt;stroke-linejoin:miter;stroke-opacity:0.730924" /><path
       id="path40"
       d="m 594.75,369.875 c -0.10382,-0.89402 0.41388,-1.53888 1,-2.125 0.46446,-0.46446 0.79623,-1.29623 1.25,-1.75 0.28617,-0.28617 0.66218,0.41218 0.75,0.5 0.0295,0.0295 0.10636,-0.0373 0.125,0 0.12281,0.24563 0.005,0.63539 0.125,0.875 0.0417,0.0833 0.20833,0.0417 0.25,0.125 0.05,0.1 -0.05,0.275 0,0.375 0.0263,0.0527 0.0833,0.0833 0.125,0.125 0,0.0833 -0.0373,0.17546 0,0.25 0.0186,0.0373 0.10636,-0.0373 0.125,0 0.0373,0.0745 -0.0373,0.17546 0,0.25 0.0186,0.0373 0.0955,-0.0295 0.125,0 0.009,0.009 0.12932,1.50432 0.375,1.75"
       style="fill:none;fill-opacity:1;stroke:#181300;stroke-width:1px;stroke-linecap:butt;stroke-linejoin:miter;stroke-opacity:0.730924" /><path
       id="path42"
       d="m 601.75,369.875 c 0.2824,-1.12962 -0.0559,0.24224 0.375,-1.625 0.0429,-0.1859 0.0801,-0.83008 0.25,-1 0.0589,-0.0589 0.18066,0.0462 0.25,0 0.59205,-0.3947 0.84128,-0.53372 1.375,0 0.10141,0.10141 0.31132,0.24764 0.375,0.375 0.0186,0.0373 -0.0295,0.0955 0,0.125 0.0295,0.0295 0.10636,-0.0373 0.125,0 0.28764,0.57528 -0.1139,2.0222 0.125,2.5 0.0186,0.0373 0.0833,0 0.125,0"
       style="fill:none;fill-opacity:1;stroke:#181300;stroke-width:1px;stroke-linecap:butt;stroke-linejoin:miter;stroke-opacity:0.730924" /></g><g
     transform="matrix(3.7795275,0,0,3.7795275,-501.09315,-322.70691)"
     id="g1084"><g
       style="display:none"
       id="layer1-9"
       inkscape:label="Layer 1"><image
         sodipodi:absref="D:\TEMP\images\images.png"
         xlink:href="../../../../../../../TEMP/images/images.png"
         id="image20"
         preserveAspectRatio="none"
         height="64.558334"
         width="54.768749"
         x="48.210861"
         y="35.000595" /></g><g
       transform="matrix(0.35274842,0,0,0.35275497,134.93857,166.93187)"
       style="display:inline"
       inkscape:label="drawing"
       id="layer2-4"><g
         inkscape:groupmode="layer"
         id="layer9"
         inkscape:label="head"
         style="display:inline"><g
           inkscape:label="ears"
           id="layer7"
           inkscape:groupmode="layer"
           style="display:inline"><path
             sodipodi:nodetypes="cccccc"
             id="path859"
             d="m 12.134037,7.8189413 c -1.703843,4.0424527 0.300678,8.3521737 0.7684,14.7666427 9.387842,1.069078 10.416829,-11.237013 9.935744,-12.570021 0,0 2.392062,-0.05846 2.458879,-1.2611767 0,0 -0.487768,-1.211065 -2.625924,-1.378108 z"
             style="fill:#804c15;fill-opacity:1;stroke:#000000;stroke-width:0.265;stroke-linecap:butt;stroke-linejoin:round;stroke-miterlimit:4;stroke-dasharray:none;stroke-opacity:1;paint-order:normal" /><path
             sodipodi:nodetypes="ccccccc"
             id="path861"
             d="m 28.402042,4.2685303 c 3.378162,-2.504092 6.249452,-3.0310991 6.249452,-3.0310991 l 5.677297,-0.02508 C 45.43147,4.5432663 41.48634,9.5042053 41.202858,11.299593 L 39.194861,9.5750763 c 0.233609,-0.87184 -1.941058,-1.667609 -2.078869,-1.630024 -2.669457,-3.260045 -6.729575,-3.345793 -8.71395,-3.676522 z"
             style="fill:#804c15;fill-opacity:1;stroke:#000000;stroke-width:0.264583px;stroke-linecap:butt;stroke-linejoin:miter;stroke-opacity:1" /></g><g
           inkscape:groupmode="layer"
           id="layer8"
           inkscape:label="eyes"
           style="display:inline"><path
             style="display:inline;fill:none;fill-opacity:1;stroke:#000000;stroke-width:0.282083;stroke-opacity:1"
             id="path900"
             sodipodi:type="arc"
             sodipodi:cx="29.296795"
             sodipodi:cy="13.999554"
             sodipodi:rx="4.5281501"
             sodipodi:ry="4.2942891"
             sodipodi:start="0"
             sodipodi:end="6.2831332"
             sodipodi:open="true"
             sodipodi:arc-type="arc"
             d="m 33.824945,13.999554 a 4.5281501,4.2942891 0 0 1 -4.528091,4.294289 4.5281501,4.2942891 0 0 1 -4.528209,-4.294177 4.5281501,4.2942891 0 0 1 4.527973,-4.2944014 4.5281501,4.2942891 0 0 1 4.528327,4.2940654" /><path
             style="display:inline;fill:none;fill-opacity:1;stroke:#000000;stroke-width:0.281996;stroke-opacity:1"
             id="path902"
             sodipodi:type="arc"
             sodipodi:cx="37.52055"
             sodipodi:cy="12.830401"
             sodipodi:rx="3.7308836"
             sodipodi:ry="3.5655189"
             sodipodi:start="0"
             sodipodi:end="6.2790489"
             sodipodi:open="true"
             sodipodi:arc-type="arc"
             d="m 41.251433,12.830401 a 3.7308836,3.5655189 0 0 1 -3.727025,3.565517 3.7308836,3.5655189 0 0 1 -3.734734,-3.558142 3.7308836,3.5655189 0 0 1 3.719301,-3.5728763 3.7308836,3.5655189 0 0 1 3.742426,3.5507533" /><path
             style="display:inline;fill:url(#linearGradient932);fill-opacity:1;stroke:none;stroke-width:0.264583;stroke-opacity:1"
             id="path904"
             sodipodi:type="arc"
             sodipodi:cx="28.880833"
             sodipodi:cy="14.285609"
             sodipodi:rx="1.8190104"
             sodipodi:ry="1.6205729"
             sodipodi:start="0"
             sodipodi:end="6.2790489"
             sodipodi:open="true"
             sodipodi:arc-type="arc"
             d="m 30.699843,14.285609 a 1.8190104,1.6205729 0 0 1 -1.817129,1.620572 1.8190104,1.6205729 0 0 1 -1.820888,-1.61722 1.8190104,1.6205729 0 0 1 1.813364,-1.623917 1.8190104,1.6205729 0 0 1 1.824637,1.613862" /><path
             style="display:inline;fill:url(#linearGradient924);fill-opacity:1;stroke:none;stroke-width:0.264583;stroke-opacity:1"
             id="path906"
             sodipodi:type="arc"
             sodipodi:cx="37.021137"
             sodipodi:cy="12.869147"
             sodipodi:rx="1.3559896"
             sodipodi:ry="1.2567708"
             sodipodi:start="0"
             sodipodi:end="6.2790489"
             sodipodi:open="true"
             sodipodi:arc-type="arc"
             d="m 38.377127,12.869147 a 1.3559896,1.2567708 0 0 1 -1.354588,1.25677 1.3559896,1.2567708 0 0 1 -1.357388,-1.25417 1.3559896,1.2567708 0 0 1 1.35178,-1.259365 1.3559896,1.2567708 0 0 1 1.360184,1.251567" /><path
             style="fill:none;stroke:#000000;stroke-width:0.264583px;stroke-linecap:butt;stroke-linejoin:miter;stroke-opacity:1"
             d="m 35.520224,8.1671203 c 0.06756,0.01074 0.138369,0.01254 0.206706,0.0083 0.26045,-0.01627 0.52396,-0.0083 0.785482,-0.0083 h 0.23151 c 0.0279,0 0.0646,0.0075 0.09095,0 0.202571,-0.06717 0.434599,-0.07222 0.628418,-0.08278 0.0065,0 0.03722,-0.0041 0.04134,0 0.0019,0.0019 -0.0019,0.0063 0,0.0083 0.02191,0.02191 0.04766,0.02286 0.06615,0.04134"
             id="path1169"
             sodipodi:nodetypes="ccssccscc" /></g><g
           inkscape:groupmode="layer"
           id="layer10"
           inkscape:label="nose"
           style="display:inline"><path
             d="m 50.370281,21.850594 a 4.7774425,4.5268774 0 0 1 -4.772509,4.526875 4.7774425,4.5268774 0 0 1 -4.782366,-4.517526 4.7774425,4.5268774 0 0 1 4.762632,-4.536205 4.7774425,4.5268774 0 0 1 4.792202,4.508157"
             style="fill:url(#linearGradient857);fill-opacity:1;stroke:#000000;stroke-width:0.264583;stroke-opacity:1"
             id="path849"
             sodipodi:type="arc"
             sodipodi:cx="45.592838"
             sodipodi:cy="21.850594"
             sodipodi:rx="4.7774425"
             sodipodi:ry="4.5268774"
             sodipodi:start="0"
             sodipodi:end="6.2790548"
             sodipodi:open="true"
             sodipodi:arc-type="arc" /><path
             id="path24-5"
             style="display:inline;fill:#000000;fill-opacity:1;fill-rule:evenodd;stroke:#000000;stroke-width:0.276759;stroke-opacity:1"
             d="m 45.182109,16.543456 a 6.4896383,5.6878288 0 0 0 -6.49004,5.688026 6.4896383,5.6878288 0 0 0 6.49004,5.688026 6.4896383,5.6878288 0 0 0 6.489522,-5.688026 6.4896383,5.6878288 0 0 0 -6.489522,-5.688026 z m 0.49971,0.802019 a 4.7774425,4.5268779 0 0 1 0.0284,0 4.7774425,4.5268779 0 0 1 4.79195,4.508253 v 0.0186 a 4.7774425,4.5268779 0 0 1 -4.77231,4.526854 4.7774425,4.5268779 0 0 1 -4.78266,-4.517554 4.7774425,4.5268779 0 0 1 4.7346,-4.536156 z" /></g></g><g
         style="display:inline"
         inkscape:label="shape"
         id="layer3-7"
         inkscape:groupmode="layer"><path
           sodipodi:nodetypes="ccccccccccccccccccccccccccccc"
           id="path26"
           d="m 6.4211519,35.949059 c 0,0 -5.078122,0.267272 -5.3788,9.688523 -0.10022598,0.334087 -0.03341,7.283095 5.479026,10.623964 0,0 -0.04009,0.798467 1.052372,1.50339 L 35.0135,57.696216 c 0.830206,-3.203893 -0.160212,-4.742804 -0.160212,-4.742804 -1.885156,-2.711979 -4.588113,-2.320626 -4.588113,-2.320626 -0.174814,-2.414323 -0.318552,-2.882234 -0.691803,-5.362702 2.14974,-5.291667 -0.183543,-10.631375 -0.868625,-10.891234 l 0.935442,-2.071339 c 0,0 6.146601,7.682375 16.536704,3.339245 0,0 6.080988,-2.97175 5.245768,-11.524374 0,0 0.93544,-7.917859 -7.01583,-7.516955 l -1.870887,-0.668173 -1.00226,-1.33635 0.06682,-3.407685 C 45.175234,2.5737763 40.330972,1.2374292 40.330972,1.2374292 34.785129,0.13494225 28.838383,3.0749063 28.571113,3.9769413 c -2.839739,0.167043 -5.010632,0.916222 -7.298959,3.086107 -5.922152,0.213967 -8.80403,0.488622 -9.138117,0.722483 -0.902035,1.369756 -0.668174,3.1070107 -0.668174,3.1070107 1.570209,9.788746 1.236124,11.425772 1.236124,11.425772 0,0 1.550161,1.219417 3.955587,0.451017 0.734991,2.271791 2.893194,4.359833 5.565889,6.097085 l -1.603618,2.305199 0.334086,0.534541 c 0,0 -12.4748051,12.344513 -15.0005021,15.735495 -3.260688,-4.650489 0.46772,-11.492594 0.46772,-11.492594 z"
           style="display:inline;fill:none;stroke:#000000;stroke-width:0.865;stroke-linecap:butt;stroke-linejoin:miter;stroke-miterlimit:4;stroke-dasharray:none;stroke-opacity:1" /><path
           style="fill:none;stroke:#000000;stroke-width:0.264583px;stroke-linecap:butt;stroke-linejoin:miter;stroke-opacity:1"
           d="m 7.0225069,54.457475 c 0.02895,0.02728 0.05591,0.05685 0.08686,0.08185 0.305127,-0.394194 0.732054,-0.768829 1.192697,-0.912068"
           id="path1207"
           sodipodi:nodetypes="ccc" /></g><g
         style="display:inline"
         inkscape:label="tail"
         id="layer4"
         inkscape:groupmode="layer"><path
           sodipodi:nodetypes="cccccc"
           id="path20"
           d="m 6.4211509,35.949058 c -6.09326698,1.437928 -5.44756598,10.857749 -5.44756598,10.857749 0,0 -0.160403,4.786952 5.54779298,9.454737 0,0 0.300677,-0.50113 0.501129,-1.804069 -2.605878,-3.741773 -1.069078,-7.015824 -1.069078,-7.015824 -3.30746,-4.510173 0.467722,-11.492593 0.467722,-11.492593 z"
           style="fill:none;stroke:#000000;stroke-width:0.264583px;stroke-linecap:butt;stroke-linejoin:miter;stroke-opacity:1" /></g><g
         inkscape:label="legs"
         id="layer6"
         inkscape:groupmode="layer"
         style="display:inline"><path
           sodipodi:nodetypes="ccccccccc"
           id="path851"
           d="m 5.9534289,47.441651 c 0,0 0.587161,-3.626727 7.6505911,-3.10701 0,0 3.212761,-0.05854 3.992337,3.10701 0.141741,2.456845 -1.336347,3.841998 -1.336347,3.841998 0,0 2.742954,-0.249006 4.727329,2.255086 0,0 1.76582,1.65529 0.41928,4.159382 L 7.5737499,57.764937 C 5.4762119,56.482821 7.2919769,55.624708 7.0225069,54.457475 4.7310259,50.25249 5.9534289,47.441651 5.9534289,47.441651 Z"
           style="fill:none;stroke:#000000;stroke-width:0.264583px;stroke-linecap:butt;stroke-linejoin:miter;stroke-opacity:1" /><path
           sodipodi:nodetypes="ccccccc"
           id="path853"
           d="m 19.413561,43.319729 c 0,0 1.214585,2.324941 0.222398,5.608609 0.165365,0.992187 1.016101,0.04099 0.968854,3.608136 2.385975,2.574963 0.801806,5.161643 0.801806,5.161643 l 8.935154,10e-7 c 1.913504,-5.386161 -2.977306,-7.172796 -5.245163,-6.180609 l -0.701582,-8.819893"
           style="fill:none;stroke:#000000;stroke-width:0.264583px;stroke-linecap:butt;stroke-linejoin:miter;stroke-opacity:1" /><path
           sodipodi:nodetypes="ccccc"
           id="path855"
           d="m 25.096609,51.517549 c 4.093026,-0.922103 6.758287,1.972257 5.245164,6.180569 l 4.671727,-0.0019 c 1.630022,-5.882254 -3.023809,-7.346914 -4.748325,-7.063432 l -0.685083,-5.646018"
           style="fill:none;stroke:#000000;stroke-width:0.264583px;stroke-linecap:butt;stroke-linejoin:miter;stroke-opacity:1" /></g></g></g></g><g
   inkscape:groupmode="layer"
   id="layer3"
   inkscape:label="house_front 1"><path
     style="fill:#002c06;fill-opacity:1;stroke:none;stroke-width:1px;stroke-linecap:butt;stroke-linejoin:miter;stroke-opacity:1"
     d="m 87.101083,133.06146 c -22.66194,0.16308 -22.98,0.007 -22.98,0.007 l -0.312,68.793 22.938,-0.096 z"
     id="path2829" /><path
     id="path2829-2"
     d="m 174.76208,133.05546 c -22.66194,0.16308 -22.98,0.007 -22.98,0.007 l -0.312,68.793 22.938,-0.096 z"
     style="fill:#002c06;fill-opacity:1;stroke:none;stroke-width:1px;stroke-linecap:butt;stroke-linejoin:miter;stroke-opacity:1" /><path
     id="path2829-20"
     d="m 223.78815,133.1873 c -22.66194,0.16308 -22.98,0.007 -22.98,0.007 l -0.312,68.793 22.938,-0.096 z"
     style="fill:#002c06;fill-opacity:1;stroke:none;stroke-width:1px;stroke-linecap:butt;stroke-linejoin:miter;stroke-opacity:1" /><path
     style="fill:#002c06;fill-opacity:1;stroke:none;stroke-width:1px;stroke-linecap:butt;stroke-linejoin:miter;stroke-opacity:1"
     d="m 311.44915,133.1813 c -22.66194,0.16308 -22.98,0.007 -22.98,0.007 l -0.312,68.793 22.938,-0.096 z"
     id="path2829-2-7" /><path
     style="fill:#002c06;fill-opacity:1;stroke:none;stroke-width:1px;stroke-linecap:butt;stroke-linejoin:miter;stroke-opacity:1"
     d="m 360.59608,133.15146 c -22.66194,0.16308 -22.98,0.007 -22.98,0.007 l -0.312,68.793 22.938,-0.096 z"
     id="path2829-20-1" /><path
     id="path2829-2-7-6"
     d="m 448.25708,133.14546 c -22.66194,0.16308 -22.98,0.007 -22.98,0.007 l -0.312,68.793 22.938,-0.096 z"
     style="fill:#002c06;fill-opacity:1;stroke:none;stroke-width:1px;stroke-linecap:butt;stroke-linejoin:miter;stroke-opacity:1" /><path
     id="path2829-20-1-6"
     d="m 86.919083,253.05246 c -22.66194,0.16308 -22.98,0.007 -22.98,0.007 l -0.312,68.793 22.938,-0.096 z"
     style="fill:#002c06;fill-opacity:1;stroke:none;stroke-width:1px;stroke-linecap:butt;stroke-linejoin:miter;stroke-opacity:1" /><path
     style="fill:#002c06;fill-opacity:1;stroke:none;stroke-width:1px;stroke-linecap:butt;stroke-linejoin:miter;stroke-opacity:1"
     d="m 174.58008,253.04646 c -22.66194,0.16308 -22.98,0.007 -22.98,0.007 l -0.312,68.793 22.938,-0.096 z"
     id="path2829-2-7-6-2" /><path
     style="fill:#002c06;fill-opacity:1;stroke:none;stroke-width:1px;stroke-linecap:butt;stroke-linejoin:miter;stroke-opacity:1"
     d="m 359.79208,253.05146 c -22.66194,0.16308 -22.98,0.007 -22.98,0.007 l -0.312,68.793 22.938,-0.096 z"
     id="path2829-20-1-6-0" /><path
     id="path2829-2-7-6-2-7"
     d="m 447.45308,253.04546 c -22.66194,0.16308 -22.98,0.007 -22.98,0.007 l -0.312,68.793 22.938,-0.096 z"
     style="fill:#002c06;fill-opacity:1;stroke:none;stroke-width:1px;stroke-linecap:butt;stroke-linejoin:miter;stroke-opacity:1" /></g></svg>
